<mxfile host="app.diagrams.net" agent="Mozilla/5.0 (Macintosh; Intel Mac OS X 10_15_7) AppleWebKit/537.36 (KHTML, like Gecko) Chrome/130.0.0.0 Safari/537.36" version="25.0.3">
  <diagram name="Strona-1" id="eW9QKG2AWJagkTKLQkT1">
    <mxGraphModel dx="823" dy="747" grid="1" gridSize="10" guides="1" tooltips="1" connect="1" arrows="1" fold="1" page="1" pageScale="1" pageWidth="827" pageHeight="1169" math="0" shadow="0">
      <root>
        <mxCell id="0" />
        <mxCell id="1" parent="0" />
        <mxCell id="XZbeVyt0j9qz8RhEK7w--8" value="" style="edgeStyle=orthogonalEdgeStyle;rounded=0;orthogonalLoop=1;jettySize=auto;html=1;" edge="1" parent="1" source="XZbeVyt0j9qz8RhEK7w--2" target="XZbeVyt0j9qz8RhEK7w--7">
          <mxGeometry relative="1" as="geometry">
            <Array as="points">
              <mxPoint x="125" y="560" />
              <mxPoint x="70" y="560" />
            </Array>
          </mxGeometry>
        </mxCell>
        <mxCell id="XZbeVyt0j9qz8RhEK7w--30" style="edgeStyle=orthogonalEdgeStyle;rounded=0;orthogonalLoop=1;jettySize=auto;html=1;entryX=0.5;entryY=0;entryDx=0;entryDy=0;" edge="1" parent="1" source="XZbeVyt0j9qz8RhEK7w--2" target="XZbeVyt0j9qz8RhEK7w--10">
          <mxGeometry relative="1" as="geometry">
            <Array as="points">
              <mxPoint x="125" y="560" />
              <mxPoint x="190" y="560" />
            </Array>
          </mxGeometry>
        </mxCell>
        <mxCell id="XZbeVyt0j9qz8RhEK7w--33" style="edgeStyle=orthogonalEdgeStyle;rounded=0;orthogonalLoop=1;jettySize=auto;html=1;entryX=0;entryY=0.5;entryDx=0;entryDy=0;" edge="1" parent="1" source="XZbeVyt0j9qz8RhEK7w--2" target="XZbeVyt0j9qz8RhEK7w--26">
          <mxGeometry relative="1" as="geometry" />
        </mxCell>
        <mxCell id="XZbeVyt0j9qz8RhEK7w--38" style="edgeStyle=orthogonalEdgeStyle;rounded=0;orthogonalLoop=1;jettySize=auto;html=1;entryX=0.5;entryY=0;entryDx=0;entryDy=0;" edge="1" parent="1" source="XZbeVyt0j9qz8RhEK7w--2" target="XZbeVyt0j9qz8RhEK7w--18">
          <mxGeometry relative="1" as="geometry">
            <Array as="points">
              <mxPoint x="125" y="560" />
              <mxPoint x="345" y="560" />
            </Array>
          </mxGeometry>
        </mxCell>
        <mxCell id="XZbeVyt0j9qz8RhEK7w--2" value="&lt;b&gt;1. Przygotowanie datasetu&lt;/b&gt;" style="rounded=1;whiteSpace=wrap;html=1;fillColor=#d5e8d4;strokeColor=#82b366;" vertex="1" parent="1">
          <mxGeometry x="70" y="465" width="110" height="70" as="geometry" />
        </mxCell>
        <mxCell id="XZbeVyt0j9qz8RhEK7w--7" value="Generowanie wejść syntetycznych" style="whiteSpace=wrap;html=1;fillColor=#d5e8d4;strokeColor=#82b366;rounded=1;" vertex="1" parent="1">
          <mxGeometry x="20" y="600" width="100" height="60" as="geometry" />
        </mxCell>
        <mxCell id="XZbeVyt0j9qz8RhEK7w--10" value="Ankietyzacja" style="whiteSpace=wrap;html=1;fillColor=#d5e8d4;strokeColor=#82b366;rounded=1;" vertex="1" parent="1">
          <mxGeometry x="140" y="600" width="100" height="60" as="geometry" />
        </mxCell>
        <mxCell id="XZbeVyt0j9qz8RhEK7w--35" style="edgeStyle=orthogonalEdgeStyle;rounded=0;orthogonalLoop=1;jettySize=auto;html=1;entryX=0;entryY=0.5;entryDx=0;entryDy=0;exitX=0;exitY=0.5;exitDx=0;exitDy=0;" edge="1" parent="1" source="XZbeVyt0j9qz8RhEK7w--11" target="XZbeVyt0j9qz8RhEK7w--26">
          <mxGeometry relative="1" as="geometry">
            <Array as="points">
              <mxPoint x="280" y="365" />
              <mxPoint x="280" y="500" />
            </Array>
          </mxGeometry>
        </mxCell>
        <mxCell id="XZbeVyt0j9qz8RhEK7w--11" value="LLM" style="whiteSpace=wrap;html=1;fillColor=#dae8fc;strokeColor=#6c8ebf;rounded=1;" vertex="1" parent="1">
          <mxGeometry x="315" y="350" width="80" height="30" as="geometry" />
        </mxCell>
        <mxCell id="XZbeVyt0j9qz8RhEK7w--18" value="Pobór danych z istniejących baz wiedzy" style="whiteSpace=wrap;html=1;fillColor=#d5e8d4;strokeColor=#82b366;rounded=1;" vertex="1" parent="1">
          <mxGeometry x="295" y="600" width="100" height="60" as="geometry" />
        </mxCell>
        <mxCell id="XZbeVyt0j9qz8RhEK7w--42" style="edgeStyle=orthogonalEdgeStyle;rounded=0;orthogonalLoop=1;jettySize=auto;html=1;entryX=0;entryY=0.5;entryDx=0;entryDy=0;" edge="1" parent="1" source="XZbeVyt0j9qz8RhEK7w--21" target="XZbeVyt0j9qz8RhEK7w--22">
          <mxGeometry relative="1" as="geometry" />
        </mxCell>
        <mxCell id="XZbeVyt0j9qz8RhEK7w--21" value="Metryka" style="whiteSpace=wrap;html=1;fillColor=#ffe6cc;strokeColor=#d79b00;rounded=1;" vertex="1" parent="1">
          <mxGeometry x="450" y="600" width="70" height="60" as="geometry" />
        </mxCell>
        <mxCell id="XZbeVyt0j9qz8RhEK7w--43" style="edgeStyle=orthogonalEdgeStyle;rounded=0;orthogonalLoop=1;jettySize=auto;html=1;entryX=1;entryY=0.5;entryDx=0;entryDy=0;exitX=0.5;exitY=0;exitDx=0;exitDy=0;" edge="1" parent="1" source="XZbeVyt0j9qz8RhEK7w--22" target="XZbeVyt0j9qz8RhEK7w--27">
          <mxGeometry relative="1" as="geometry" />
        </mxCell>
        <mxCell id="XZbeVyt0j9qz8RhEK7w--22" value="Mechanizm punktowania" style="whiteSpace=wrap;html=1;fillColor=#ffe6cc;strokeColor=#d79b00;rounded=1;" vertex="1" parent="1">
          <mxGeometry x="590" y="600" width="80" height="60" as="geometry" />
        </mxCell>
        <mxCell id="XZbeVyt0j9qz8RhEK7w--34" style="edgeStyle=orthogonalEdgeStyle;rounded=0;orthogonalLoop=1;jettySize=auto;html=1;entryX=1;entryY=0.5;entryDx=0;entryDy=0;exitX=1;exitY=0.5;exitDx=0;exitDy=0;" edge="1" parent="1" source="XZbeVyt0j9qz8RhEK7w--26" target="XZbeVyt0j9qz8RhEK7w--11">
          <mxGeometry relative="1" as="geometry" />
        </mxCell>
        <mxCell id="XZbeVyt0j9qz8RhEK7w--39" style="edgeStyle=orthogonalEdgeStyle;rounded=0;orthogonalLoop=1;jettySize=auto;html=1;entryX=0;entryY=0.5;entryDx=0;entryDy=0;" edge="1" parent="1" source="XZbeVyt0j9qz8RhEK7w--26" target="XZbeVyt0j9qz8RhEK7w--27">
          <mxGeometry relative="1" as="geometry" />
        </mxCell>
        <mxCell id="XZbeVyt0j9qz8RhEK7w--26" value="&lt;b&gt;2. Generowanie odpowiedzi&lt;/b&gt;" style="rounded=1;whiteSpace=wrap;html=1;fillColor=#dae8fc;strokeColor=#6c8ebf;" vertex="1" parent="1">
          <mxGeometry x="305" y="465" width="100" height="70" as="geometry" />
        </mxCell>
        <mxCell id="XZbeVyt0j9qz8RhEK7w--41" style="edgeStyle=orthogonalEdgeStyle;rounded=0;orthogonalLoop=1;jettySize=auto;html=1;entryX=0.5;entryY=0;entryDx=0;entryDy=0;exitX=0;exitY=0.5;exitDx=0;exitDy=0;" edge="1" parent="1" source="XZbeVyt0j9qz8RhEK7w--27" target="XZbeVyt0j9qz8RhEK7w--21">
          <mxGeometry relative="1" as="geometry" />
        </mxCell>
        <mxCell id="XZbeVyt0j9qz8RhEK7w--27" value="&lt;b&gt;3. Punktowanie&lt;/b&gt;" style="rounded=1;whiteSpace=wrap;html=1;fillColor=#ffe6cc;strokeColor=#d79b00;" vertex="1" parent="1">
          <mxGeometry x="510" y="465" width="100" height="70" as="geometry" />
        </mxCell>
        <mxCell id="XZbeVyt0j9qz8RhEK7w--37" value="..." style="text;html=1;align=center;verticalAlign=middle;whiteSpace=wrap;rounded=0;" vertex="1" parent="1">
          <mxGeometry x="240" y="615" width="60" height="30" as="geometry" />
        </mxCell>
      </root>
    </mxGraphModel>
  </diagram>
</mxfile>
